<?xml version="1.0" encoding="utf-8"?>
<!-- Generator: Adobe Illustrator 16.0.0, SVG Export Plug-In . SVG Version: 6.00 Build 0)  -->
<!DOCTYPE svg PUBLIC "-//W3C//DTD SVG 1.1//EN" "http://www.w3.org/Graphics/SVG/1.1/DTD/svg11.dtd">
<svg version="1.1" id="Layer_1" xmlns="http://www.w3.org/2000/svg" xmlns:xlink="http://www.w3.org/1999/xlink" x="0px" y="0px"
	 width="960px" height="560px" viewBox="0 0 960 560" enable-background="new 0 0 960 560" xml:space="preserve">
<g>
	<g>
		<g>
			
				<linearGradient id="SVGID_1_" gradientUnits="userSpaceOnUse" x1="590.5273" y1="443.8037" x2="613.0295" y2="200.4661" gradientTransform="matrix(-1 0 0 1 942.2178 0)">
				<stop  offset="0" style="stop-color:#59883D"/>
				<stop  offset="0.2709" style="stop-color:#6BA242"/>
				<stop  offset="0.5074" style="stop-color:#7CB942"/>
				<stop  offset="0.7537" style="stop-color:#8EC759"/>
				<stop  offset="0.9852" style="stop-color:#A3CF6D"/>
			</linearGradient>
			<path fill-rule="evenodd" clip-rule="evenodd" fill="url(#SVGID_1_)" d="M271.867,234.684
				c13.543,45.999,172.136,32.28,130.453,181.089c-5.42-45.311-26.227-72.909-62.412-82.799
				c24.932,17.043,38.742,39.798,41.438,68.27C299.312,373.985,262.818,318.464,271.867,234.684z"/>
			<linearGradient id="SVGID_2_" gradientUnits="userSpaceOnUse" x1="477.7886" y1="442.4932" x2="500.2908" y2="199.1549">
				<stop  offset="0" style="stop-color:#59883D"/>
				<stop  offset="0.2709" style="stop-color:#6BA242"/>
				<stop  offset="0.5074" style="stop-color:#7CB942"/>
				<stop  offset="0.7537" style="stop-color:#8EC759"/>
				<stop  offset="0.9852" style="stop-color:#A3CF6D"/>
			</linearGradient>
			<path fill-rule="evenodd" clip-rule="evenodd" fill="url(#SVGID_2_)" d="M557.487,234.684
				c-13.543,45.999-172.132,32.28-130.451,181.089c5.423-45.311,26.232-72.909,62.413-82.799
				c-24.932,17.043-38.743,39.798-41.438,68.27C530.05,373.985,566.543,318.464,557.487,234.684z"/>
		</g>
		<g>
			<defs>
				<path id="SVGID_3_" d="M446.087,89.351c22.579-2.697,42.61,10.554,47.707,32.252c3.753,15.967,0.329,31.283-7.123,45.515
					c-15.145,28.904-39.375,43.654-71.945,45.009c-4.044,0.167-5.029-1.169-4.956-5.054c0.235-12.545,0.096-25.098,0.091-37.644
					h17.687c10.414,0,18.859-8.442,18.859-18.86c0-10.411-8.445-18.853-18.859-18.853h-17.673
					C410.053,110.303,425.932,91.756,446.087,89.351 M336.399,149.729c-7.123-34.342,3.526-62.797,31.743-83.765
					c18.536-13.772,39.618-17.696,62.004-12.604c-27.781,9.968-46.521,28.152-55.073,56.427c-2.371,7.823-3.087,15.843-3.076,23.971
					c0.038,21.583,0.013,43.17,0.013,65.975C353.22,187.258,340.812,171.007,336.399,149.729 M296.444,128.025
					c0,0-3.464,49.991,33.524,86.311c13.577,13.326,28.556,21.611,42.083,26.761v28.957c0,10.412,8.441,18.86,18.858,18.86
					c10.415,0,18.856-8.448,18.856-18.86v-20.646c2.954,0.179,4.63,0.143,4.634,0.14c9.229,0.51,18.326-0.828,27.321-2.937
					c59.938-14.076,100.313-72.176,89.539-134.859c-9.151-53.298-50.469-91.598-104.118-97.98
					c-4.443-0.529-8.864-0.785-13.249-0.785C351.779,12.987,297.312,64.635,296.444,128.025"/>
			</defs>
			<clipPath id="SVGID_4_">
				<use xlink:href="#SVGID_3_"  overflow="visible"/>
			</clipPath>
			
				<linearGradient id="SVGID_5_" gradientUnits="userSpaceOnUse" x1="57.8086" y1="578.1475" x2="59.6606" y2="578.1475" gradientTransform="matrix(127.8306 0 0 -127.8306 -7093.1875 74055.875)">
				<stop  offset="0" style="stop-color:#5B893D"/>
				<stop  offset="0.2709" style="stop-color:#6AA242"/>
				<stop  offset="0.5074" style="stop-color:#7EBA42"/>
				<stop  offset="0.7537" style="stop-color:#8EC75B"/>
				<stop  offset="0.9852" style="stop-color:#A3CF6E"/>
				<stop  offset="1" style="stop-color:#A3CF6E"/>
			</linearGradient>
			<rect x="292.979" y="12.987" clip-path="url(#SVGID_4_)" fill="url(#SVGID_5_)" width="249.055" height="275.927"/>
		</g>
		<g>
			<g>
				<linearGradient id="SVGID_6_" gradientUnits="userSpaceOnUse" x1="408.0044" y1="515.3779" x2="408.4216" y2="548.015">
					<stop  offset="0" style="stop-color:#59883D"/>
					<stop  offset="0.2793" style="stop-color:#6BA242"/>
					<stop  offset="1" style="stop-color:#7CB942"/>
					<stop  offset="1" style="stop-color:#8EC759"/>
					<stop  offset="1" style="stop-color:#A3CF6D"/>
				</linearGradient>
				<path fill="url(#SVGID_6_)" d="M274.519,547.235h-4.162l-17.144-26.327h-0.172c0.229,3.09,0.343,5.923,0.343,8.497v17.83h-3.369
					v-31.369h4.12l17.101,26.22h0.172c-0.029-0.387-0.093-1.627-0.193-3.723s-0.136-3.594-0.107-4.495v-18.002h3.412V547.235z"/>
				<linearGradient id="SVGID_7_" gradientUnits="userSpaceOnUse" x1="408.0044" y1="515.3779" x2="408.4216" y2="548.015">
					<stop  offset="0" style="stop-color:#59883D"/>
					<stop  offset="0.2793" style="stop-color:#6BA242"/>
					<stop  offset="1" style="stop-color:#7CB942"/>
					<stop  offset="1" style="stop-color:#8EC759"/>
					<stop  offset="1" style="stop-color:#A3CF6D"/>
				</linearGradient>
				<path fill="url(#SVGID_7_)" d="M317.715,547.235l-3.905-9.978h-12.573l-3.862,9.978h-3.69l12.402-31.498h3.068l12.337,31.498
					H317.715z M312.673,533.976l-3.647-9.72c-0.472-1.23-0.958-2.739-1.459-4.527c-0.315,1.373-0.766,2.883-1.352,4.527l-3.69,9.72
					H312.673z"/>
				<linearGradient id="SVGID_8_" gradientUnits="userSpaceOnUse" x1="408.0044" y1="515.3779" x2="408.4216" y2="548.015">
					<stop  offset="0" style="stop-color:#59883D"/>
					<stop  offset="0.2793" style="stop-color:#6BA242"/>
					<stop  offset="1" style="stop-color:#7CB942"/>
					<stop  offset="1" style="stop-color:#8EC759"/>
					<stop  offset="1" style="stop-color:#A3CF6D"/>
				</linearGradient>
				<path fill="url(#SVGID_8_)" d="M350.312,547.235h-3.647v-28.129h-9.934v-3.24h23.516v3.24h-9.935V547.235z"/>
				<linearGradient id="SVGID_9_" gradientUnits="userSpaceOnUse" x1="408.0044" y1="515.3779" x2="408.4216" y2="548.015">
					<stop  offset="0" style="stop-color:#59883D"/>
					<stop  offset="0.2793" style="stop-color:#6BA242"/>
					<stop  offset="1" style="stop-color:#7CB942"/>
					<stop  offset="1" style="stop-color:#8EC759"/>
					<stop  offset="1" style="stop-color:#A3CF6D"/>
				</linearGradient>
				<path fill="url(#SVGID_9_)" d="M403.506,515.866v20.298c0,3.576-1.08,6.387-3.24,8.433c-2.16,2.045-5.128,3.067-8.904,3.067
					s-6.698-1.029-8.765-3.089c-2.067-2.061-3.101-4.893-3.101-8.497v-20.212h3.647v20.47c0,2.617,0.715,4.627,2.146,6.029
					c1.43,1.401,3.533,2.103,6.308,2.103c2.646,0,4.684-0.705,6.115-2.113c1.43-1.409,2.146-3.43,2.146-6.062v-20.427H403.506z"/>
				<linearGradient id="SVGID_10_" gradientUnits="userSpaceOnUse" x1="408.0044" y1="515.3779" x2="408.4216" y2="548.015">
					<stop  offset="0" style="stop-color:#59883D"/>
					<stop  offset="0.2793" style="stop-color:#6BA242"/>
					<stop  offset="1" style="stop-color:#7CB942"/>
					<stop  offset="1" style="stop-color:#8EC759"/>
					<stop  offset="1" style="stop-color:#A3CF6D"/>
				</linearGradient>
				<path fill="url(#SVGID_10_)" d="M430.31,534.19v13.045h-3.647v-31.369h8.604c3.848,0,6.69,0.737,8.528,2.21
					c1.838,1.474,2.757,3.69,2.757,6.651c0,4.148-2.103,6.952-6.308,8.411l8.518,14.097h-4.313l-7.596-13.045H430.31z
					 M430.31,531.058h5c2.574,0,4.463-0.512,5.664-1.534s1.802-2.557,1.802-4.603c0-2.074-0.611-3.568-1.834-4.484
					c-1.223-0.915-3.187-1.373-5.89-1.373h-4.742V531.058z"/>
				<linearGradient id="SVGID_11_" gradientUnits="userSpaceOnUse" x1="408.0044" y1="515.3779" x2="408.4216" y2="548.015">
					<stop  offset="0" style="stop-color:#59883D"/>
					<stop  offset="0.2793" style="stop-color:#6BA242"/>
					<stop  offset="1" style="stop-color:#7CB942"/>
					<stop  offset="1" style="stop-color:#8EC759"/>
					<stop  offset="1" style="stop-color:#A3CF6D"/>
				</linearGradient>
				<path fill="url(#SVGID_11_)" d="M488.396,547.235l-3.905-9.978h-12.573l-3.862,9.978h-3.69l12.401-31.498h3.068l12.338,31.498
					H488.396z M483.354,533.976l-3.647-9.72c-0.472-1.23-0.958-2.739-1.459-4.527c-0.314,1.373-0.765,2.883-1.352,4.527l-3.69,9.72
					H483.354z"/>
				<linearGradient id="SVGID_12_" gradientUnits="userSpaceOnUse" x1="408.0044" y1="515.3779" x2="408.4216" y2="548.015">
					<stop  offset="0" style="stop-color:#59883D"/>
					<stop  offset="0.2793" style="stop-color:#6BA242"/>
					<stop  offset="1" style="stop-color:#7CB942"/>
					<stop  offset="1" style="stop-color:#8EC759"/>
					<stop  offset="1" style="stop-color:#A3CF6D"/>
				</linearGradient>
				<path fill="url(#SVGID_12_)" d="M511.338,547.235v-31.369h3.647v28.064h13.84v3.305H511.338z"/>
				<linearGradient id="SVGID_13_" gradientUnits="userSpaceOnUse" x1="408.0044" y1="515.3779" x2="408.4216" y2="548.015">
					<stop  offset="0" style="stop-color:#59883D"/>
					<stop  offset="0.2793" style="stop-color:#6BA242"/>
					<stop  offset="1" style="stop-color:#7CB942"/>
					<stop  offset="1" style="stop-color:#8EC759"/>
					<stop  offset="1" style="stop-color:#A3CF6D"/>
				</linearGradient>
				<path fill="url(#SVGID_13_)" d="M566.699,538.889c0,2.761-1.001,4.914-3.004,6.459c-2.002,1.544-4.72,2.316-8.153,2.316
					c-3.719,0-6.58-0.479-8.582-1.438v-3.519c1.287,0.544,2.689,0.973,4.205,1.287c1.517,0.315,3.019,0.473,4.506,0.473
					c2.432,0,4.263-0.462,5.493-1.384c1.229-0.923,1.845-2.207,1.845-3.852c0-1.087-0.218-1.978-0.654-2.672
					c-0.437-0.693-1.166-1.333-2.188-1.92c-1.022-0.586-2.578-1.252-4.667-1.995c-2.918-1.044-5.003-2.281-6.254-3.712
					c-1.252-1.431-1.878-3.297-1.878-5.601c0-2.417,0.908-4.341,2.726-5.771c1.816-1.43,4.219-2.146,7.209-2.146
					c3.118,0,5.986,0.572,8.604,1.717l-1.137,3.175c-2.589-1.087-5.106-1.63-7.553-1.63c-1.931,0-3.44,0.415-4.527,1.244
					s-1.631,1.981-1.631,3.454c0,1.087,0.2,1.978,0.602,2.672c0.399,0.693,1.076,1.33,2.027,1.909s2.406,1.22,4.366,1.92
					c3.29,1.174,5.554,2.433,6.791,3.776C566.081,534.998,566.699,536.743,566.699,538.889z"/>
			</g>
		</g>
		<g>
			<g>
				<g>
					<linearGradient id="SVGID_14_" gradientUnits="userSpaceOnUse" x1="305.5928" y1="462.8848" x2="342.167" y2="462.8848">
						<stop  offset="0" style="stop-color:#59883D"/>
						<stop  offset="0.2209" style="stop-color:#6BA242"/>
						<stop  offset="0.565" style="stop-color:#70A842"/>
						<stop  offset="0.8374" style="stop-color:#7CB942"/>
						<stop  offset="0.9437" style="stop-color:#8EC759"/>
						<stop  offset="0.9852" style="stop-color:#A3CF6D"/>
					</linearGradient>
					<path fill="url(#SVGID_14_)" d="M338.455,466.888h-20.088v12.664h23.728v9.826h-36.501v-52.987h36.574v9.862h-23.8v11.173
						h20.088V466.888z"/>
				</g>
			</g>
			<g>
				<g>
					<linearGradient id="SVGID_15_" gradientUnits="userSpaceOnUse" x1="248.7314" y1="462.8848" x2="284.1777" y2="462.8848">
						<stop  offset="0" style="stop-color:#59883D"/>
						<stop  offset="0.2209" style="stop-color:#6BA242"/>
						<stop  offset="0.565" style="stop-color:#70A842"/>
						<stop  offset="0.8374" style="stop-color:#7CB942"/>
						<stop  offset="0.9437" style="stop-color:#8EC759"/>
						<stop  offset="0.9852" style="stop-color:#A3CF6D"/>
					</linearGradient>
					<path fill="url(#SVGID_15_)" d="M282.103,468.271h-20.598v21.107h-12.774v-52.987h35.446v9.862h-22.672v12.191h20.598V468.271z
						"/>
				</g>
			</g>
			<g>
				<g>
					<linearGradient id="SVGID_16_" gradientUnits="userSpaceOnUse" x1="359.6865" y1="462.8848" x2="401.3193" y2="462.8848">
						<stop  offset="0" style="stop-color:#59883D"/>
						<stop  offset="0.2209" style="stop-color:#6BA242"/>
						<stop  offset="0.565" style="stop-color:#70A842"/>
						<stop  offset="0.8374" style="stop-color:#7CB942"/>
						<stop  offset="0.9437" style="stop-color:#8EC759"/>
						<stop  offset="0.9852" style="stop-color:#A3CF6D"/>
					</linearGradient>
					<path fill="url(#SVGID_16_)" d="M359.687,489.378v-52.987h17.068c4.682,0,8.892,1.062,12.628,3.185
						c3.736,2.123,6.653,5.119,8.752,8.989c2.098,3.87,3.16,8.206,3.184,13.01v2.438c0,4.853-1.025,9.201-3.075,13.047
						c-2.05,3.846-4.938,6.854-8.661,9.024c-3.725,2.172-7.879,3.271-12.464,3.294H359.687z M372.46,446.253v33.299h4.44
						c3.663,0,6.478-1.304,8.443-3.912c1.965-2.607,2.948-6.483,2.948-11.627v-2.293c0-5.118-0.982-8.977-2.948-11.572
						s-4.828-3.895-8.588-3.895H372.46z"/>
				</g>
			</g>
			<g>
				<g>
					<linearGradient id="SVGID_17_" gradientUnits="userSpaceOnUse" x1="413.8916" y1="462.8848" x2="460.2559" y2="462.8848">
						<stop  offset="0" style="stop-color:#59883D"/>
						<stop  offset="0.2209" style="stop-color:#6BA242"/>
						<stop  offset="0.565" style="stop-color:#70A842"/>
						<stop  offset="0.8374" style="stop-color:#7CB942"/>
						<stop  offset="0.9437" style="stop-color:#8EC759"/>
						<stop  offset="0.9852" style="stop-color:#A3CF6D"/>
					</linearGradient>
					<path fill="url(#SVGID_17_)" d="M460.256,463.977c0,5.167-0.959,9.741-2.875,13.72c-1.917,3.979-4.641,7.042-8.17,9.188
						c-3.53,2.147-7.552,3.221-12.064,3.221s-8.516-1.037-12.01-3.111c-3.493-2.074-6.217-5.04-8.17-8.897
						s-2.979-8.285-3.075-13.283v-2.984c0-5.191,0.952-9.771,2.857-13.738c1.904-3.967,4.634-7.029,8.188-9.188
						c3.555-2.159,7.601-3.239,12.137-3.239c4.488,0,8.492,1.068,12.01,3.202c3.518,2.136,6.253,5.175,8.206,9.116
						c1.953,3.943,2.942,8.462,2.967,13.557V463.977z M447.264,461.756c0-5.264-0.88-9.262-2.639-11.991
						c-1.759-2.729-4.276-4.094-7.552-4.094c-6.404,0-9.789,4.804-10.153,14.411l-0.036,3.895c0,5.191,0.861,9.183,2.584,11.973
						s4.282,4.186,7.679,4.186c3.227,0,5.714-1.371,7.46-4.112c1.747-2.742,2.633-6.685,2.657-11.828V461.756z"/>
				</g>
			</g>
			<g>
				<g>
					<linearGradient id="SVGID_18_" gradientUnits="userSpaceOnUse" x1="474.1357" y1="462.8848" x2="516.8604" y2="462.8848">
						<stop  offset="0" style="stop-color:#59883D"/>
						<stop  offset="0.2209" style="stop-color:#6BA242"/>
						<stop  offset="0.565" style="stop-color:#70A842"/>
						<stop  offset="0.8374" style="stop-color:#7CB942"/>
						<stop  offset="0.9437" style="stop-color:#8EC759"/>
						<stop  offset="0.9852" style="stop-color:#A3CF6D"/>
					</linearGradient>
					<path fill="url(#SVGID_18_)" d="M493.824,470.636h-6.915v18.742h-12.773v-52.987h20.853c6.283,0,11.196,1.395,14.739,4.181
						c3.542,2.788,5.313,6.726,5.313,11.815c0,3.684-0.746,6.737-2.238,9.161c-1.492,2.423-3.827,4.387-7.006,5.889l11.063,21.395
						v0.547h-13.684L493.824,470.636z M486.909,460.811h8.079c2.426,0,4.252-0.639,5.478-1.916c1.225-1.276,1.838-3.059,1.838-5.345
						s-0.619-4.08-1.856-5.381s-3.057-1.952-5.459-1.952h-8.079V460.811z"/>
				</g>
			</g>
			<g>
				<g>
					<linearGradient id="SVGID_19_" gradientUnits="userSpaceOnUse" x1="529.3604" y1="462.8662" x2="573.7588" y2="462.8662">
						<stop  offset="0" style="stop-color:#59883D"/>
						<stop  offset="0.2209" style="stop-color:#6BA242"/>
						<stop  offset="0.565" style="stop-color:#70A842"/>
						<stop  offset="0.8374" style="stop-color:#7CB942"/>
						<stop  offset="0.9437" style="stop-color:#8EC759"/>
						<stop  offset="0.9852" style="stop-color:#A3CF6D"/>
					</linearGradient>
					<path fill="url(#SVGID_19_)" d="M573.759,482.827c-1.966,2.184-4.841,3.943-8.625,5.277c-3.785,1.334-7.934,2.001-12.446,2.001
						c-6.938,0-12.482-2.122-16.631-6.368c-4.149-4.245-6.369-10.153-6.66-17.723l-0.036-4.586c0-5.216,0.922-9.771,2.766-13.665
						c1.844-3.895,4.481-6.891,7.915-8.989c3.433-2.098,7.406-3.147,11.919-3.147c6.599,0,11.724,1.51,15.375,4.53
						s5.78,7.527,6.387,13.52h-12.3c-0.437-2.959-1.383-5.07-2.839-6.332c-1.456-1.261-3.519-1.893-6.187-1.893
						c-3.202,0-5.678,1.359-7.424,4.076c-1.747,2.718-2.633,6.6-2.657,11.646v3.203c0,5.289,0.904,9.262,2.712,11.918
						c1.807,2.656,4.651,3.985,8.533,3.985c3.324,0,5.799-0.74,7.425-2.221v-8.225h-8.88v-8.771h21.653V482.827z"/>
				</g>
			</g>
		</g>
	</g>
	<g>
		<g>
			<linearGradient id="SVGID_20_" gradientUnits="userSpaceOnUse" x1="557.2676" y1="9.1924" x2="557.5687" y2="32.7476">
				<stop  offset="0" style="stop-color:#59883D"/>
				<stop  offset="0.2793" style="stop-color:#6BA242"/>
				<stop  offset="1" style="stop-color:#7CB942"/>
				<stop  offset="1" style="stop-color:#8EC759"/>
				<stop  offset="1" style="stop-color:#A3CF6D"/>
			</linearGradient>
			<path fill="url(#SVGID_20_)" d="M543.166,33.537h-2.922V11.001h-7.959V8.405h18.84v2.596h-7.959V33.537z"/>
			<linearGradient id="SVGID_21_" gradientUnits="userSpaceOnUse" x1="557.2676" y1="9.1924" x2="557.5687" y2="32.7476">
				<stop  offset="0" style="stop-color:#59883D"/>
				<stop  offset="0.2793" style="stop-color:#6BA242"/>
				<stop  offset="1" style="stop-color:#7CB942"/>
				<stop  offset="1" style="stop-color:#8EC759"/>
				<stop  offset="1" style="stop-color:#A3CF6D"/>
			</linearGradient>
			<path fill="url(#SVGID_21_)" d="M568.493,33.537l-8.526-22.278h-0.138c0.16,1.765,0.241,3.862,0.241,6.292v15.987h-2.699V8.405
				h4.4l7.959,20.731h0.138l8.027-20.731h4.366v25.132h-2.922V17.344c0-1.856,0.08-3.874,0.24-6.051h-0.137l-8.596,22.244H568.493z"
				/>
		</g>
	</g>
</g>
</svg>
