<?xml version="1.0" encoding="utf-8"?>
<!-- Generator: Adobe Illustrator 16.0.0, SVG Export Plug-In . SVG Version: 6.00 Build 0)  -->
<!DOCTYPE svg PUBLIC "-//W3C//DTD SVG 1.1//EN" "http://www.w3.org/Graphics/SVG/1.1/DTD/svg11.dtd">
<svg version="1.1" id="Layer_1" xmlns="http://www.w3.org/2000/svg" xmlns:xlink="http://www.w3.org/1999/xlink" x="0px" y="0px"
	 width="800px" height="800px" viewBox="0 0 800 800" enable-background="new 0 0 800 800" xml:space="preserve">
<g>
	<g>
		<g>
			
				<linearGradient id="SVGID_1_" gradientUnits="userSpaceOnUse" x1="728.5996" y1="168.8643" x2="760.6488" y2="515.4426" gradientTransform="matrix(-1 0 0 -1 1038.2188 806)">
				<stop  offset="0" style="stop-color:#59883D"/>
				<stop  offset="0.2709" style="stop-color:#6BA242"/>
				<stop  offset="0.5074" style="stop-color:#7CB942"/>
				<stop  offset="0.7537" style="stop-color:#8EC759"/>
				<stop  offset="0.9852" style="stop-color:#A3CF6D"/>
			</linearGradient>
			<path fill="url(#SVGID_1_)" d="M195.93,339.292c19.289,65.516,245.167,45.975,185.8,257.92
				c-7.72-64.536-37.355-103.843-88.892-117.928c35.509,24.273,55.179,56.681,59.018,97.234
				C235.019,537.693,183.041,458.616,195.93,339.292z"/>
			
				<linearGradient id="SVGID_2_" gradientUnits="userSpaceOnUse" x1="395.2178" y1="170.7334" x2="427.2669" y2="517.3127" gradientTransform="matrix(1 0 0 -1 94 806)">
				<stop  offset="0" style="stop-color:#59883D"/>
				<stop  offset="0.2709" style="stop-color:#6BA242"/>
				<stop  offset="0.5074" style="stop-color:#7CB942"/>
				<stop  offset="0.7537" style="stop-color:#8EC759"/>
				<stop  offset="0.9852" style="stop-color:#A3CF6D"/>
			</linearGradient>
			<path fill="url(#SVGID_2_)" d="M602.729,339.292c-19.288,65.516-245.162,45.975-185.797,257.92
				c7.724-64.536,37.36-103.843,88.893-117.928c-35.51,24.273-55.181,56.681-59.02,97.234
				C563.652,537.693,615.627,458.616,602.729,339.292z"/>
		</g>
		<g>
			<g>
				<defs>
					<path id="SVGID_3_" d="M444.065,132.298c32.159-3.842,60.688,15.032,67.948,45.936c5.345,22.741,0.469,44.555-10.146,64.826
						c-21.569,41.167-56.08,62.175-102.469,64.105c-5.759,0.237-7.162-1.665-7.059-7.198c0.335-17.868,0.137-35.747,0.131-53.615
						h25.19c14.833,0,26.86-12.024,26.86-26.862c0-14.828-12.027-26.852-26.86-26.852H392.49
						C392.743,162.139,415.359,135.724,444.065,132.298 M287.841,218.293c-10.146-48.912,5.021-89.44,45.209-119.304
						c26.4-19.615,56.427-25.204,88.312-17.952c-39.568,14.198-66.259,40.097-78.439,80.368
						c-3.377,11.142-4.396,22.564-4.381,34.141c0.054,30.74,0.018,61.486,0.018,93.966
						C311.798,271.744,294.127,248.598,287.841,218.293 M230.934,187.38c0,0-4.934,71.201,47.747,122.93
						c19.337,18.98,40.672,30.78,59.938,38.115v41.242c0,14.829,12.023,26.862,26.86,26.862c14.833,0,26.855-12.033,26.855-26.862
						v-29.405c4.208,0.254,6.594,0.203,6.602,0.199c13.144,0.727,26.1-1.178,38.911-4.183
						c85.368-20.047,142.873-102.798,127.527-192.075c-13.032-75.911-71.881-130.46-148.292-139.55
						c-6.327-0.753-12.623-1.118-18.87-1.118C309.747,23.535,232.17,97.096,230.934,187.38"/>
				</defs>
				<clipPath id="SVGID_4_">
					<use xlink:href="#SVGID_3_"  overflow="visible"/>
				</clipPath>
				
					<linearGradient id="SVGID_5_" gradientUnits="userSpaceOnUse" x1="57.5532" y1="223.3545" x2="60.191" y2="223.3545" gradientTransform="matrix(127.8306 0 0 127.8306 -7126 -28331.4375)">
					<stop  offset="0" style="stop-color:#5B893D"/>
					<stop  offset="0.2709" style="stop-color:#6AA242"/>
					<stop  offset="0.5074" style="stop-color:#7EBA42"/>
					<stop  offset="0.7537" style="stop-color:#8EC75B"/>
					<stop  offset="0.9852" style="stop-color:#A3CF6E"/>
					<stop  offset="1" style="stop-color:#A3CF6E"/>
				</linearGradient>
				<rect x="225.999" y="23.535" clip-path="url(#SVGID_4_)" fill="url(#SVGID_5_)" width="354.722" height="392.995"/>
			</g>
		</g>
		<g>
			<g>
				
					<linearGradient id="SVGID_6_" gradientUnits="userSpaceOnUse" x1="87.998" y1="64.2671" x2="88.5923" y2="17.7834" gradientTransform="matrix(1 0 0 -1 94 806)">
					<stop  offset="0" style="stop-color:#59883D"/>
					<stop  offset="0.2793" style="stop-color:#6BA242"/>
					<stop  offset="1" style="stop-color:#7CB942"/>
					<stop  offset="1" style="stop-color:#8EC759"/>
					<stop  offset="1" style="stop-color:#A3CF6D"/>
				</linearGradient>
				<path fill="url(#SVGID_6_)" d="M199.707,784.449h-5.928l-24.417-37.498h-0.245c0.326,4.401,0.489,8.437,0.489,12.104v25.395
					h-4.798v-44.678h5.867l24.356,37.343h0.246c-0.042-0.55-0.133-2.316-0.276-5.301c-0.142-2.987-0.193-5.121-0.152-6.403v-25.639
					h4.86v44.678H199.707z"/>
				
					<linearGradient id="SVGID_7_" gradientUnits="userSpaceOnUse" x1="152.2505" y1="65.0884" x2="152.8447" y2="18.6028" gradientTransform="matrix(1 0 0 -1 94 806)">
					<stop  offset="0" style="stop-color:#59883D"/>
					<stop  offset="0.2793" style="stop-color:#6BA242"/>
					<stop  offset="1" style="stop-color:#7CB942"/>
					<stop  offset="1" style="stop-color:#8EC759"/>
					<stop  offset="1" style="stop-color:#A3CF6D"/>
				</linearGradient>
				<path fill="url(#SVGID_7_)" d="M261.229,784.449l-5.563-14.212H237.76l-5.5,14.212h-5.255l17.664-44.862h4.37l17.571,44.862
					H261.229z M254.048,765.563l-5.193-13.844c-0.673-1.75-1.365-3.901-2.079-6.447c-0.449,1.955-1.092,4.106-1.926,6.447
					l-5.256,13.844H254.048z"/>
				
					<linearGradient id="SVGID_8_" gradientUnits="userSpaceOnUse" x1="211.0361" y1="65.8394" x2="211.6303" y2="19.356" gradientTransform="matrix(1 0 0 -1 94 806)">
					<stop  offset="0" style="stop-color:#59883D"/>
					<stop  offset="0.2793" style="stop-color:#6BA242"/>
					<stop  offset="1" style="stop-color:#7CB942"/>
					<stop  offset="1" style="stop-color:#8EC759"/>
					<stop  offset="1" style="stop-color:#A3CF6D"/>
				</linearGradient>
				<path fill="url(#SVGID_8_)" d="M307.657,784.449h-5.195v-40.064h-14.148v-4.613h33.492v4.613h-14.149V784.449z"/>
				
					<linearGradient id="SVGID_9_" gradientUnits="userSpaceOnUse" x1="272.1313" y1="66.6211" x2="272.7256" y2="20.1379" gradientTransform="matrix(1 0 0 -1 94 806)">
					<stop  offset="0" style="stop-color:#59883D"/>
					<stop  offset="0.2793" style="stop-color:#6BA242"/>
					<stop  offset="1" style="stop-color:#7CB942"/>
					<stop  offset="1" style="stop-color:#8EC759"/>
					<stop  offset="1" style="stop-color:#A3CF6D"/>
				</linearGradient>
				<path fill="url(#SVGID_9_)" d="M383.419,739.771v28.909c0,5.094-1.539,9.096-4.615,12.011c-3.075,2.912-7.303,4.367-12.68,4.367
					c-5.379,0-9.541-1.465-12.485-4.398c-2.943-2.937-4.416-6.97-4.416-12.102v-28.787h5.193v29.153c0,3.728,1.02,6.591,3.057,8.587
					c2.036,1.995,5.033,2.995,8.984,2.995c3.77,0,6.672-1.004,8.71-3.008c2.036-2.008,3.057-4.886,3.057-8.635v-29.093H383.419z"/>
				
					<linearGradient id="SVGID_10_" gradientUnits="userSpaceOnUse" x1="337.5513" y1="67.457" x2="338.1455" y2="20.9728" gradientTransform="matrix(1 0 0 -1 94 806)">
					<stop  offset="0" style="stop-color:#59883D"/>
					<stop  offset="0.2793" style="stop-color:#6BA242"/>
					<stop  offset="1" style="stop-color:#7CB942"/>
					<stop  offset="1" style="stop-color:#8EC759"/>
					<stop  offset="1" style="stop-color:#A3CF6D"/>
				</linearGradient>
				<path fill="url(#SVGID_10_)" d="M421.595,765.869v18.58h-5.193v-44.678h12.253c5.482,0,9.529,1.048,12.147,3.146
					c2.617,2.099,3.926,5.256,3.926,9.473c0,5.908-2.994,9.901-8.983,11.979l12.131,20.079h-6.142l-10.82-18.58H421.595z
					 M421.595,761.407h7.121c3.666,0,6.358-0.729,8.067-2.183c1.711-1.457,2.567-3.643,2.567-6.558c0-2.954-0.871-5.082-2.612-6.387
					c-1.742-1.303-4.539-1.954-8.39-1.954h-6.754V761.407L421.595,761.407z"/>
				
					<linearGradient id="SVGID_11_" gradientUnits="userSpaceOnUse" x1="395.3071" y1="68.1968" x2="395.9014" y2="21.7116" gradientTransform="matrix(1 0 0 -1 94 806)">
					<stop  offset="0" style="stop-color:#59883D"/>
					<stop  offset="0.2793" style="stop-color:#6BA242"/>
					<stop  offset="1" style="stop-color:#7CB942"/>
					<stop  offset="1" style="stop-color:#8EC759"/>
					<stop  offset="1" style="stop-color:#A3CF6D"/>
				</linearGradient>
				<path fill="url(#SVGID_11_)" d="M504.325,784.449l-5.562-14.212h-17.908l-5.5,14.212h-5.255l17.661-44.862h4.371l17.572,44.862
					H504.325z M497.144,765.563l-5.193-13.844c-0.672-1.75-1.364-3.901-2.078-6.447c-0.447,1.955-1.09,4.106-1.925,6.447
					l-5.257,13.844H497.144z"/>
				
					<linearGradient id="SVGID_12_" gradientUnits="userSpaceOnUse" x1="454.8789" y1="68.9556" x2="455.4731" y2="22.4718" gradientTransform="matrix(1 0 0 -1 94 806)">
					<stop  offset="0" style="stop-color:#59883D"/>
					<stop  offset="0.2793" style="stop-color:#6BA242"/>
					<stop  offset="1" style="stop-color:#7CB942"/>
					<stop  offset="1" style="stop-color:#8EC759"/>
					<stop  offset="1" style="stop-color:#A3CF6D"/>
				</linearGradient>
				<path fill="url(#SVGID_12_)" d="M537.001,784.449v-44.678h5.195v39.969h19.711v4.709H537.001z"/>
				
					<linearGradient id="SVGID_13_" gradientUnits="userSpaceOnUse" x1="507.2646" y1="69.6265" x2="507.8588" y2="23.144" gradientTransform="matrix(1 0 0 -1 94 806)">
					<stop  offset="0" style="stop-color:#59883D"/>
					<stop  offset="0.2793" style="stop-color:#6BA242"/>
					<stop  offset="1" style="stop-color:#7CB942"/>
					<stop  offset="1" style="stop-color:#8EC759"/>
					<stop  offset="1" style="stop-color:#A3CF6D"/>
				</linearGradient>
				<path fill="url(#SVGID_13_)" d="M615.851,772.561c0,3.934-1.426,7-4.278,9.199c-2.852,2.199-6.724,3.299-11.612,3.299
					c-5.297,0-9.372-0.682-12.224-2.048v-5.012c1.834,0.775,3.83,1.386,5.988,1.834c2.161,0.447,4.301,0.673,6.418,0.673
					c3.464,0,6.071-0.658,7.824-1.971c1.75-1.314,2.627-3.144,2.627-5.486c0-1.547-0.31-2.817-0.932-3.807
					c-0.621-0.986-1.661-1.898-3.116-2.734c-1.456-0.835-3.672-1.783-6.646-2.84c-4.155-1.488-7.125-3.249-8.907-5.289
					c-1.783-2.037-2.675-4.695-2.675-7.977c0-3.442,1.294-6.183,3.882-8.218c2.587-2.039,6.009-3.058,10.269-3.058
					c4.44,0,8.525,0.815,12.254,2.444l-1.62,4.522c-3.687-1.548-7.271-2.321-10.757-2.321c-2.749,0-4.898,0.591-6.448,1.772
					c-1.548,1.18-2.322,2.821-2.322,4.919c0,1.549,0.285,2.816,0.858,3.806c0.567,0.987,1.532,1.895,2.885,2.719
					c1.355,0.825,3.428,1.737,6.219,2.734c4.687,1.672,7.912,3.465,9.673,5.379C614.97,767.02,615.851,769.506,615.851,772.561z"/>
			</g>
		</g>
		<g>
			<g>
				<g>
					
						<linearGradient id="SVGID_14_" gradientUnits="userSpaceOnUse" x1="149.9658" y1="141.6899" x2="202.0571" y2="141.6899" gradientTransform="matrix(1 0 0 -1 94 806)">
						<stop  offset="0" style="stop-color:#59883D"/>
						<stop  offset="0.2209" style="stop-color:#6BA242"/>
						<stop  offset="0.565" style="stop-color:#70A842"/>
						<stop  offset="0.8374" style="stop-color:#7CB942"/>
						<stop  offset="0.9437" style="stop-color:#8EC759"/>
						<stop  offset="0.9852" style="stop-color:#A3CF6D"/>
					</linearGradient>
					<path fill="url(#SVGID_14_)" d="M290.769,670.013h-28.611v18.037h33.794v13.994h-51.987v-75.468h52.091v14.047H262.16v15.913
						h28.611v13.477H290.769z"/>
				</g>
			</g>
			<g>
				<g>
					
						<linearGradient id="SVGID_15_" gradientUnits="userSpaceOnUse" x1="68.9775" y1="141.6899" x2="119.4619" y2="141.6899" gradientTransform="matrix(1 0 0 -1 94 806)">
						<stop  offset="0" style="stop-color:#59883D"/>
						<stop  offset="0.2209" style="stop-color:#6BA242"/>
						<stop  offset="0.565" style="stop-color:#70A842"/>
						<stop  offset="0.8374" style="stop-color:#7CB942"/>
						<stop  offset="0.9437" style="stop-color:#8EC759"/>
						<stop  offset="0.9852" style="stop-color:#A3CF6D"/>
					</linearGradient>
					<path fill="url(#SVGID_15_)" d="M210.508,671.983h-29.337v30.061h-18.193v-75.468h50.484v14.047h-32.291v17.363h29.337V671.983
						z"/>
				</g>
			</g>
			<g>
				<g>
					
						<linearGradient id="SVGID_16_" gradientUnits="userSpaceOnUse" x1="227.0098" y1="141.6899" x2="286.3047" y2="141.6899" gradientTransform="matrix(1 0 0 -1 94 806)">
						<stop  offset="0" style="stop-color:#59883D"/>
						<stop  offset="0.2209" style="stop-color:#6BA242"/>
						<stop  offset="0.565" style="stop-color:#70A842"/>
						<stop  offset="0.8374" style="stop-color:#7CB942"/>
						<stop  offset="0.9437" style="stop-color:#8EC759"/>
						<stop  offset="0.9852" style="stop-color:#A3CF6D"/>
					</linearGradient>
					<path fill="url(#SVGID_16_)" d="M321.01,702.044v-75.468h24.309c6.669,0,12.665,1.514,17.986,4.537
						c5.321,3.024,9.476,7.291,12.464,12.803c2.989,5.512,4.501,11.688,4.536,18.53v3.472c0,6.912-1.46,13.104-4.38,18.581
						c-2.92,5.479-7.034,9.763-12.335,12.854c-5.305,3.094-11.222,4.659-17.752,4.691H321.01z M339.201,640.623v47.427h6.324
						c5.216,0,9.226-1.857,12.024-5.572c2.798-3.712,4.199-9.233,4.199-16.56v-3.267c0-7.29-1.399-12.785-4.199-16.48
						c-2.8-3.696-6.876-5.548-12.231-5.548H339.201L339.201,640.623z"/>
				</g>
			</g>
			<g>
				<g>
					
						<linearGradient id="SVGID_17_" gradientUnits="userSpaceOnUse" x1="304.2109" y1="141.687" x2="370.248" y2="141.687" gradientTransform="matrix(1 0 0 -1 94 806)">
						<stop  offset="0" style="stop-color:#59883D"/>
						<stop  offset="0.2209" style="stop-color:#6BA242"/>
						<stop  offset="0.565" style="stop-color:#70A842"/>
						<stop  offset="0.8374" style="stop-color:#7CB942"/>
						<stop  offset="0.9437" style="stop-color:#8EC759"/>
						<stop  offset="0.9852" style="stop-color:#A3CF6D"/>
					</linearGradient>
					<path fill="url(#SVGID_17_)" d="M464.246,665.865c0,7.36-1.365,13.875-4.095,19.542c-2.73,5.667-6.609,10.03-11.636,13.086
						c-5.028,3.06-10.756,4.589-17.184,4.589c-6.426,0-12.129-1.477-17.104-4.432c-4.976-2.954-8.854-7.179-11.637-12.673
						c-2.782-5.492-4.242-11.799-4.38-18.916v-4.251c0-7.395,1.356-13.918,4.069-19.567c2.713-5.649,6.601-10.011,11.662-13.086
						c5.063-3.075,10.826-4.613,17.287-4.613c6.392,0,12.095,1.522,17.104,4.561c5.01,3.042,8.906,7.37,11.688,12.984
						c2.781,5.615,4.19,12.052,4.226,19.308v3.469H464.246z M445.741,662.703c0-7.497-1.253-13.191-3.758-17.079
						c-2.505-3.886-6.091-5.83-10.756-5.83c-9.121,0-13.942,6.842-14.461,20.525l-0.051,5.546c0,7.395,1.226,13.08,3.68,17.055
						c2.455,3.974,6.099,5.961,10.937,5.961c4.598,0,8.141-1.953,10.626-5.855c2.487-3.906,3.751-9.522,3.783-16.846V662.703
						L445.741,662.703z"/>
				</g>
			</g>
			<g>
				<g>
					
						<linearGradient id="SVGID_18_" gradientUnits="userSpaceOnUse" x1="390.0156" y1="141.689" x2="450.8662" y2="141.689" gradientTransform="matrix(1 0 0 -1 94 806)">
						<stop  offset="0" style="stop-color:#59883D"/>
						<stop  offset="0.2209" style="stop-color:#6BA242"/>
						<stop  offset="0.565" style="stop-color:#70A842"/>
						<stop  offset="0.8374" style="stop-color:#7CB942"/>
						<stop  offset="0.9437" style="stop-color:#8EC759"/>
						<stop  offset="0.9852" style="stop-color:#A3CF6D"/>
					</linearGradient>
					<path fill="url(#SVGID_18_)" d="M512.057,675.35h-9.849v26.694h-18.192v-75.468h29.7c8.948,0,15.945,1.987,20.993,5.956
						c5.043,3.971,7.566,9.579,7.566,16.826c0,5.248-1.063,9.596-3.188,13.049c-2.125,3.45-5.449,6.248-9.979,8.388l15.758,30.473
						v0.778h-19.491L512.057,675.35z M502.208,661.357h11.507c3.455,0,6.056-0.91,7.802-2.729c1.745-1.817,2.617-4.355,2.617-7.612
						s-0.881-5.812-2.643-7.664s-4.354-2.78-7.775-2.78h-11.507L502.208,661.357L502.208,661.357z"/>
				</g>
			</g>
			<g>
				<g>
					
						<linearGradient id="SVGID_19_" gradientUnits="userSpaceOnUse" x1="468.6709" y1="141.7153" x2="531.9053" y2="141.7153" gradientTransform="matrix(1 0 0 -1 94 806)">
						<stop  offset="0" style="stop-color:#59883D"/>
						<stop  offset="0.2209" style="stop-color:#6BA242"/>
						<stop  offset="0.565" style="stop-color:#70A842"/>
						<stop  offset="0.8374" style="stop-color:#7CB942"/>
						<stop  offset="0.9437" style="stop-color:#8EC759"/>
						<stop  offset="0.9852" style="stop-color:#A3CF6D"/>
					</linearGradient>
					<path fill="url(#SVGID_19_)" d="M625.905,692.715c-2.8,3.109-6.895,5.615-12.285,7.515c-5.391,1.901-11.299,2.852-17.727,2.852
						c-9.881,0-17.776-3.022-23.687-9.07c-5.908-6.046-9.071-14.461-9.484-25.243l-0.052-6.532c0-7.428,1.313-13.915,3.939-19.463
						c2.625-5.546,6.382-9.813,11.273-12.801c4.888-2.989,10.548-4.483,16.976-4.483c9.398,0,16.697,2.15,21.897,6.453
						c5.2,4.301,8.233,10.719,9.097,19.255h-17.518c-0.623-4.214-1.97-7.22-4.045-9.019c-2.073-1.796-5.01-2.695-8.811-2.695
						c-4.561,0-8.088,1.935-10.575,5.806c-2.487,3.87-3.749,9.399-3.783,16.587v4.561c0,7.534,1.287,13.191,3.862,16.975
						c2.574,3.784,6.624,5.677,12.153,5.677c4.733,0,8.261-1.055,10.575-3.165v-11.713h-12.646v-12.493h30.839V692.715
						L625.905,692.715z"/>
				</g>
			</g>
		</g>
	</g>
	<g>
		<g>
			
				<linearGradient id="SVGID_20_" gradientUnits="userSpaceOnUse" x1="486.2461" y1="787.5869" x2="486.675" y2="754.0392" gradientTransform="matrix(1 0 0 -1 94 806)">
				<stop  offset="0" style="stop-color:#59883D"/>
				<stop  offset="0.2793" style="stop-color:#6BA242"/>
				<stop  offset="1" style="stop-color:#7CB942"/>
				<stop  offset="1" style="stop-color:#8EC759"/>
				<stop  offset="1" style="stop-color:#A3CF6D"/>
			</linearGradient>
			<path fill="url(#SVGID_20_)" d="M582.332,52.804h-4.16V20.707h-11.336V17.01h26.832v3.697h-11.336V52.804L582.332,52.804z"/>
			
				<linearGradient id="SVGID_21_" gradientUnits="userSpaceOnUse" x1="526.0723" y1="788.0957" x2="526.5012" y2="754.5468" gradientTransform="matrix(1 0 0 -1 94 806)">
				<stop  offset="0" style="stop-color:#59883D"/>
				<stop  offset="0.2793" style="stop-color:#6BA242"/>
				<stop  offset="1" style="stop-color:#7CB942"/>
				<stop  offset="1" style="stop-color:#8EC759"/>
				<stop  offset="1" style="stop-color:#A3CF6D"/>
			</linearGradient>
			<path fill="url(#SVGID_21_)" d="M618.405,52.804l-12.145-31.73h-0.195c0.228,2.514,0.343,5.5,0.343,8.961v22.771h-3.844V17.01
				h6.268l11.335,29.526h0.196l11.433-29.526h6.218v35.794h-4.161V29.741c0-2.644,0.114-5.518,0.343-8.618H634l-12.244,31.682
				H618.405z"/>
		</g>
	</g>
</g>
</svg>
