<?xml version="1.0" encoding="utf-8"?>
<!-- Generator: Adobe Illustrator 16.0.0, SVG Export Plug-In . SVG Version: 6.00 Build 0)  -->
<!DOCTYPE svg PUBLIC "-//W3C//DTD SVG 1.1//EN" "http://www.w3.org/Graphics/SVG/1.1/DTD/svg11.dtd">
<svg version="1.1" id="Layer_1" xmlns="http://www.w3.org/2000/svg" xmlns:xlink="http://www.w3.org/1999/xlink" x="0px" y="0px"
	 width="800px" height="560px" viewBox="0 0 800 560" enable-background="new 0 0 800 560" xml:space="preserve">
<g>
	<path fill-rule="evenodd" clip-rule="evenodd" fill="#649332" d="M788.281,22.33l0.212,0.149c-0.566,1.041-1.001,2.182-1.714,3.109
		c-9.365,12.214-18.772,24.39-28.155,36.588c-20.434,26.561-40.838,53.143-61.296,79.685c-11.997,15.563-24.094,31.05-36.113,46.598
		c-8.455,10.937-16.822,21.941-25.298,32.861c-2.514,3.235-2.754,5.509,1.504,7.569c3.376,1.636,7.395,1.733,10.274,4.443
		c-18.624,10.904-37.246,21.811-55.878,32.702c-1.46,0.854-3.003,1.562-4.483,2.382c-7.683,4.265-7.891,4.333-10.517-4.368
		c-6.699-22.202-13.188-44.467-19.763-66.707c2.163-1.37,4.444-2.58,6.468-4.132c14.083-10.817,28.053-21.787,42.181-32.544
		c14.389-10.955,28.963-21.662,43.375-32.586c21.498-16.294,42.924-32.678,64.374-49.032c22.401-17.079,44.789-34.175,67.205-51.232
		"/>
	<path fill-rule="evenodd" clip-rule="evenodd" fill="#7AB941" d="M788.781,21.892c-0.104,2.348-1.753,3.536-3.429,4.812
		c-22.465,17.087-44.9,34.214-67.351,51.322c-21.496,16.383-42.969,32.796-64.513,49.119c-14.443,10.944-29.05,21.669-43.469,32.644
		c-14.159,10.776-28.159,21.765-42.272,32.601c-2.027,1.555-4.313,2.767-6.481,4.139c-23.261-9.065-46.519-18.132-70.257-27.383
		c3.16-3.246,6.883-4.571,10.278-6.26c19.76-9.824,39.604-19.483,59.416-29.206c28.719-14.094,57.465-28.136,86.147-42.309
		c23.632-11.676,47.17-23.542,70.781-35.264c22.064-10.954,44.163-21.845,66.273-32.708
		C785.414,22.66,787.149,22.383,788.781,21.892z"/>
	<path fill-rule="evenodd" clip-rule="evenodd" fill="#7AB941" d="M433.206,351.26c-9.273,2.249-18.648,1.561-28.789,0.602
		C407.035,349.851,426.873,349.323,433.206,351.26z"/>
	<path fill-rule="evenodd" clip-rule="evenodd" fill="#7AB941" d="M241.875,301.756c8.45-4.41,17.313-4.941,26.469-2.689
		C259.488,299.65,250.643,300.346,241.875,301.756z"/>
	<path fill-rule="evenodd" clip-rule="evenodd" fill="#7AB941" d="M449.141,350.023c-0.357-1.913,0.737-2.316,1.678-2.55
		c6.483-1.601,12.981-3.14,19.486-4.653c0.939-0.219,2.144-0.676,2.597,0.73c0.241,0.749-0.344,1.286-1.053,1.477
		C464.355,347.037,456.938,349.443,449.141,350.023z"/>
	<path fill-rule="evenodd" clip-rule="evenodd" fill="#7AB941" d="M414.689,233.162c7.1,1.049,13.673,3.38,19.782,6.999
		c0.865,0.51,1.93,1.195,1.115,2.383c-0.633,0.924-1.578,0.262-2.277-0.135c-6.013-3.42-12.353-5.869-19.263-6.698
		c-0.91-0.108-1.814-0.544-1.717-1.523C412.49,232.634,413.824,233.24,414.689,233.162z"/>
	<path fill-rule="evenodd" clip-rule="evenodd" fill="#7AB941" d="M306.219,438.394c-7.022-1.769-13.855-4.178-20.544-7.048
		c-0.649-0.277-1.183-0.804-0.896-1.595c0.284-0.781,1.037-0.901,1.699-0.665c6.822,2.436,13.632,4.912,20.444,7.375
		C306.688,437.105,306.455,437.749,306.219,438.394z"/>
	<path fill-rule="evenodd" clip-rule="evenodd" fill="#7AB941" d="M111.997,523.949c-6.667,1.414-13.469,1.201-20.244,1.262
		c-0.692,0.008-1.395-0.255-1.521-1.066c-0.136-0.886,0.55-1.248,1.234-1.283c6.848-0.346,13.697-0.647,20.546-0.959
		C112.008,522.585,112.003,523.266,111.997,523.949z"/>
	<path fill-rule="evenodd" clip-rule="evenodd" fill="#7AB941" d="M402.675,444.733c-3.559,3.505-13.61,5.824-21.24,5.25
		C383.464,447.733,393.361,445.221,402.675,444.733z"/>
	<path fill-rule="evenodd" clip-rule="evenodd" fill="#7AB941" d="M398.131,235.021c-5.904,2.607-12.253,2.995-18.166,5.086
		c-0.463,0.164-1.401-0.22-1.735-0.65c-0.515-0.663,0.032-1.307,0.72-1.558C385.143,235.637,391.508,234.453,398.131,235.021z"/>
	<path fill-rule="evenodd" clip-rule="evenodd" fill="#7AB941" d="M326.9,411.618c-1.537,6.762-3.994,13.237-6.739,19.62
		c-0.268,0.618-0.722,1.246-1.542,1.007c-0.754-0.225-1.088-0.903-0.83-1.611c2.412-6.586,4.864-13.155,7.304-19.73
		C325.695,411.143,326.298,411.38,326.9,411.618z"/>
	<path fill-rule="evenodd" clip-rule="evenodd" fill="#7AB941" d="M460.225,409.791c-4.198,5.537-9.461,10.039-14.769,14.492
		c-0.64,0.538-1.481,1.064-2.232,0.216c-0.24-0.268-0.279-1.124-0.055-1.333c5.26-4.915,10.57-9.781,15.87-14.656
		C459.437,408.938,459.83,409.365,460.225,409.791z"/>
	<path fill-rule="evenodd" clip-rule="evenodd" fill="#7AB941" d="M351.38,282.745c0,6.386,0.001,12.773-0.002,19.161
		c-0.002,0.764-0.418,1.463-1.137,1.329c-0.512-0.093-1.22-0.807-1.297-1.327c-0.958-6.353-0.927-12.695-0.232-19.016
		C349.601,282.843,350.492,282.793,351.38,282.745z"/>
	<path fill-rule="evenodd" clip-rule="evenodd" fill="#7AB941" d="M647.466,233.679c-2.829-2.709-6.776-2.805-10.093-4.441
		c-4.184-2.058-3.949-4.331-1.479-7.563c8.326-10.912,16.552-21.907,24.857-32.835c11.81-15.536,23.694-31.012,35.483-46.562
		c20.101-26.52,40.149-53.083,60.225-79.623c9.22-12.188,18.464-24.355,27.663-36.559c0.699-0.928,1.95-1.806,2.503-2.847
		c0.993-0.366,1.165-0.994,2.156-1.358c-5.03,15.276-10.047,30.557-15.093,45.828c-5.125,15.511-10.243,31.024-15.424,46.515
		c-6.747,20.167-13.549,40.313-20.335,60.465c-5.483,16.282-10.988,32.557-16.468,48.842c-3.416,10.153-7.037,20.243-10.081,30.512
		c-1.075,3.622-2.383,4.391-5.627,3.083c-9.647-3.882-19.347-7.622-29.001-11.479c-8.097-3.234-15.925-7.156-24.388-9.436
		C650.636,235.756,649.094,234.546,647.466,233.679z"/>
	<path fill-rule="evenodd" clip-rule="evenodd" fill="#7AB941" d="M364.978,335.256c-4.349-5.18-8.393-10.591-11.318-16.833
		c-0.153-0.331,0.086-1.109,0.396-1.334c0.677-0.494,1.35-0.023,1.728,0.549c3.614,5.479,7.196,10.983,10.785,16.479
		C366.039,334.496,365.508,334.875,364.978,335.256z"/>
	<path fill-rule="evenodd" clip-rule="evenodd" fill="#7AB941" d="M298.126,311.903c-4.773-3.113-10.297-5.388-15.732-7.843
		c-0.715-0.325-0.87-1.064-0.379-1.71c0.485-0.639,1.184-0.545,1.864-0.279c5.257,2.053,10.375,4.391,15.14,7.44
		c0.55,0.35,1.272,0.702,1.058,1.549C299.869,311.877,299.19,312.006,298.126,311.903z"/>
	<path fill-rule="evenodd" clip-rule="evenodd" fill="#7AB941" d="M126.251,520.914c6.411-0.757,12.82-1.535,19.235-2.246
		c0.732-0.08,1.413,0.5,1.103,1.27c-0.204,0.504-0.934,1.05-1.486,1.121c-6.167,0.798-12.345,1.51-18.52,2.242
		C126.474,522.507,126.362,521.711,126.251,520.914z"/>
	<path fill-rule="evenodd" clip-rule="evenodd" fill="#7AB941" d="M45.268,523.516c-6.309-0.124-12.562-1.188-18.814-2.196
		c-0.697-0.112-1.274-0.58-1.115-1.402c0.16-0.819,0.902-1.042,1.575-0.96c6.156,0.758,12.306,1.563,18.458,2.354
		C45.338,522.046,45.303,522.78,45.268,523.516z"/>
	<path fill-rule="evenodd" clip-rule="evenodd" fill="#7AB941" d="M366.246,246.648c-4.397,5.226-8.639,10.515-12.48,16.121
		C353.279,257.887,360,249.001,366.246,246.648z"/>
	<path fill-rule="evenodd" clip-rule="evenodd" fill="#7AB941" d="M163.914,518.4c-1.806,0.157-2.879,0.238-3.078-0.76
		c-0.265-1.338,0.957-1.609,1.942-1.793c4.686-0.867,9.381-1.691,14.074-2.523c1.013-0.182,2.207-0.422,2.397,1.001
		c0.132,1.001-0.852,1.403-1.696,1.565C172.703,516.808,167.844,517.68,163.914,518.4z"/>
	<path fill-rule="evenodd" clip-rule="evenodd" fill="#7AB941" d="M209.149,349.61c0.529-3.365,1.024-6.734,1.614-10.088
		c0.154-0.874,0.727-1.703,1.785-1.241c0.995,0.434,0.633,1.423,0.526,2.237c-0.565,4.395-1.411,8.768-0.991,13.236
		c0.099,1.053,0.081,2.422-1.058,2.558c-1.819,0.216-1.44-1.509-1.534-2.579c-0.119-1.352-0.03-2.724-0.03-4.088
		C209.357,349.634,209.253,349.622,209.149,349.61z"/>
	<path fill-rule="evenodd" clip-rule="evenodd" fill="#7AB941" d="M270.818,424.355c-5.365-2.368-10.337-5.481-15.209-8.762
		c-0.451-0.304-0.824-1.131-0.773-1.669c0.079-0.852,0.993-0.991,1.572-0.644c5.225,3.124,10.408,6.313,15.604,9.481
		C271.614,423.293,271.214,423.825,270.818,424.355z"/>
	<path fill-rule="evenodd" clip-rule="evenodd" fill="#7AB941" d="M577.898,277.938c-3.645,4.858-7.91,9.179-12.47,13.223
		c-0.372,0.33-1.402,0.354-1.839,0.076c-0.659-0.426-0.397-1.246,0.124-1.742c4.379-4.164,8.78-8.302,13.174-12.447
		C577.224,277.345,577.563,277.642,577.898,277.938z"/>
	<path fill-rule="evenodd" clip-rule="evenodd" fill="#7AB941" d="M216.979,323.652c-0.054-2.146,7.659-13.564,9.381-14.166
		c0.674-0.235,1.42-0.373,1.794,0.361c0.173,0.338,0.073,1.104-0.198,1.334c-3.888,3.345-5.815,8-8.331,12.265
		c-0.429,0.727-0.96,1.559-1.995,1.15C217.278,324.458,217.108,323.854,216.979,323.652z"/>
	<path fill-rule="evenodd" clip-rule="evenodd" fill="#7AB941" d="M364.386,449.496c-5.415,0.315-10.727-0.999-16.044-2.068
		c-0.267-0.056-0.62-0.882-0.519-1.229c0.104-0.364,0.743-0.874,1.084-0.83c5.248,0.679,10.483,1.435,15.722,2.174
		C364.548,448.193,364.467,448.844,364.386,449.496z"/>
	<path fill-rule="evenodd" clip-rule="evenodd" fill="#7AB941" d="M76.145,523.849c-5.595,2.029-11.097,1.21-16.592-0.273
		C65.109,521.851,70.634,523.023,76.145,523.849z"/>
	<path fill-rule="evenodd" clip-rule="evenodd" fill="#6FA535" d="M634.274,226.111l-52.964,45.119c0,0,1.81-0.111,4.792-2.103
		l63.42-34.921L634.274,226.111z"/>
	<path fill-rule="evenodd" clip-rule="evenodd" fill="#7AB941" d="M447.791,250.286c0.397,0.232,0.896,0.416,1.254,0.748
		c3.763,3.497,7.224,7.276,10.306,11.388c0.497,0.662,1.139,1.511,0.226,2.218c-0.848,0.657-1.543,0.002-2.146-0.662
		c-3.435-3.8-6.909-7.567-10.305-11.399C446.353,251.708,446.167,250.712,447.791,250.286z"/>
	<path fill-rule="evenodd" clip-rule="evenodd" fill="#7AB941" d="M552.73,301.072c-3.245,4.751-7.966,7.651-12.499,10.761
		c-0.285,0.195-1.075,0.046-1.331-0.226c-0.248-0.26-0.316-1.151-0.106-1.315C543.167,306.825,547.369,303.071,552.73,301.072z"/>
	<path fill-rule="evenodd" clip-rule="evenodd" fill="#7AB941" d="M320.877,439.766c4.098,0.89,7.585,1.643,11.069,2.407
		c1.066,0.233,2.135,0.695,1.687,1.979c-0.323,0.929-1.421,0.693-2.231,0.522c-3.49-0.734-6.98-1.478-10.453-2.289
		c-0.903-0.211-2.347-0.229-2.025-1.665C319.216,439.427,320.49,439.72,320.877,439.766z"/>
	<path fill-rule="evenodd" clip-rule="evenodd" fill="#7AB941" d="M431.563,432.23c-3.791,4.313-8.76,6.662-14.303,8.019
		C420.938,435.771,426.653,434.703,431.563,432.23z"/>
	<path fill-rule="evenodd" clip-rule="evenodd" fill="#7AB941" d="M244.657,403.561c-0.124,0.243-0.245,0.878-0.585,1.03
		c-0.368,0.168-1.092,0.054-1.395-0.228c-3.143-2.905-6.249-5.854-9.316-8.84c-0.298-0.29-0.472-0.997-0.329-1.362
		c0.124-0.314,0.781-0.572,1.208-0.581C235.187,393.559,244.473,402.365,244.657,403.561z"/>
	<path fill-rule="evenodd" clip-rule="evenodd" fill="#7AB941" d="M215.728,369.541c2.601,3.857,5.21,7.707,7.794,11.578
		c0.429,0.644,0.369,1.45-0.394,1.651c-0.522,0.136-1.444-0.135-1.768-0.551c-2.856-3.667-5.717-7.357-7.122-11.821
		C214.735,370.113,215.232,369.826,215.728,369.541z"/>
	<path fill-rule="evenodd" clip-rule="evenodd" fill="#7AB941" d="M515.646,327.205c-0.574-0.313-1.126-0.434-1.331-0.766
		c-0.436-0.711,0.029-1.399,0.592-1.735c3.49-2.076,7.013-4.104,10.55-6.099c0.634-0.356,1.398-0.209,1.719,0.491
		c0.166,0.36,0.076,1.183-0.178,1.339C523.25,322.731,519.457,324.952,515.646,327.205z"/>
	<path fill-rule="evenodd" clip-rule="evenodd" fill="#7AB941" d="M258.484,494.652c-0.272,0.254-0.57,0.758-0.986,0.89
		c-3.424,1.093-6.865,2.131-10.311,3.15c-0.691,0.205-1.454,0.097-1.676-0.688c-0.105-0.368,0.177-1.182,0.455-1.272
		c3.727-1.218,7.47-2.387,11.244-3.453C257.849,493.101,258.485,493.633,258.484,494.652z"/>
	<path fill-rule="evenodd" clip-rule="evenodd" fill="#7AB941" d="M283.713,480.51c-3.454,3.9-7.261,7.123-12.45,8.202
		C274.695,484.851,278.823,482.035,283.713,480.51z"/>
	<path fill-rule="evenodd" clip-rule="evenodd" fill="#7AB941" d="M481.551,310.189c0.328,1.862,0.471,2.836-0.566,3.146
		c-1.459,0.435-1.568-0.828-1.827-1.766c-0.864-3.1-1.724-6.2-2.543-9.313c-0.243-0.918-0.849-2.123,0.721-2.403
		c0.966-0.171,1.478,0.677,1.721,1.529C479.998,304.641,480.906,307.902,481.551,310.189z"/>
	<path fill-rule="evenodd" clip-rule="evenodd" fill="#7AB941" d="M331.724,368.73c-0.061,1.671,0.386,3.254-1.216,3.447
		c-1.883,0.228-1.327-1.528-1.449-2.561c-0.343-2.85-0.592-5.715-0.889-8.572c-0.096-0.911,0.038-1.874,1.015-2.003
		c0.962-0.127,1.44,0.802,1.557,1.662C331.133,363.548,331.445,366.404,331.724,368.73z"/>
	<path fill-rule="evenodd" clip-rule="evenodd" fill="#7AB941" d="M479.332,379.538c-1.566-0.195-1.381-1.217-0.999-2.223
		c1.131-2.997,2.302-5.978,3.485-8.954c0.327-0.823,0.883-1.525,1.871-1.242c0.326,0.094,0.768,0.818,0.688,1.134
		c-0.98,3.754-2.388,7.356-4.226,10.779C480.021,379.277,479.613,379.373,479.332,379.538z"/>
	<path fill-rule="evenodd" clip-rule="evenodd" fill="#7AB941" d="M205.82,508.62c-3.192,2.58-7.105,2.735-10.794,3.605
		c-0.68,0.161-1.406,0.204-1.689-0.585c-0.366-1.022,0.226-1.702,1.159-1.842C198.226,509.246,201.805,507.482,205.82,508.62z"/>
	<path fill-rule="evenodd" clip-rule="evenodd" fill="#7AB941" d="M377.275,344.214c4.302-0.772,8.039,1.608,12.027,2.561
		c0.655,0.153,1.344,0.625,0.978,1.451c-0.414,0.936-1.334,0.979-2.185,0.731c-3.704-1.079-7.394-2.198-11.088-3.304
		C377.095,345.174,377.186,344.693,377.275,344.214z"/>
	<path fill-rule="evenodd" clip-rule="evenodd" fill="#7AB941" d="M231.689,501.847c-3.724,2.618-7.77,4.005-12.343,3.281
		C223.079,502.636,227.154,501.416,231.689,501.847z"/>
	<path fill-rule="evenodd" clip-rule="evenodd" fill="#7AB941" d="M302.298,461.378c0.069,1.347-6.313,9.153-7.311,9.308
		c-0.44,0.066-1.105-0.028-1.341-0.317c-0.223-0.273-0.212-1.049,0.023-1.342c2.111-2.639,4.239-5.273,6.488-7.798
		C300.983,460.306,301.897,460.556,302.298,461.378z"/>
	<path fill-rule="evenodd" clip-rule="evenodd" fill="#7AB941" d="M467.735,276.351c1.354,0.178,5.726,9.03,4.97,10.102
		c-0.487,0.692-1.313,0.785-1.669,0.12c-1.591-2.975-3.104-5.997-4.498-9.067C466.256,276.888,466.888,276.286,467.735,276.351z"/>
	<path fill-rule="evenodd" clip-rule="evenodd" fill="#7AB941" d="M501.13,333.189c-1.974,2.651-5.276,3.077-8.038,4.388
		c-0.646,0.309-1.354,0.049-1.554-0.763c-0.187-0.762,0.241-1.321,0.896-1.606c2.688-1.166,5.394-2.289,8.095-3.429
		C500.729,332.25,500.929,332.72,501.13,333.189z"/>
	<path fill-rule="evenodd" clip-rule="evenodd" fill="#7AB941" d="M330.47,387.3c1.156,3.347,0.284,5.624-0.039,7.906
		c-0.14,0.987-0.411,2.205-1.774,1.921c-1.036-0.217-0.96-1.319-0.786-2.132C328.386,392.617,328.163,389.968,330.47,387.3z"/>
	<path fill-rule="evenodd" clip-rule="evenodd" fill="#7AB941" d="M320.651,337.336c0.539-0.146,0.752-0.28,0.86-0.221
		c2.933,1.613,4.054,4.399,4.614,7.456c0.13,0.704-0.856,1.445-1.331,0.86C322.866,343.045,321.05,340.527,320.651,337.336z"/>
	<path fill-rule="evenodd" clip-rule="evenodd" fill="#7AB941" d="M467.966,398.407c-0.082-0.815-0.35-1.445-0.142-1.745
		c1.23-1.767,1.57-4.264,3.964-5.073c0.241-0.081,1.065,0.635,1.02,0.759C471.905,394.796,471.127,397.395,467.966,398.407z"/>
	<path fill-rule="evenodd" clip-rule="evenodd" fill="#E6E8E3" d="M634.896,222.403"/>
	<polyline fill-rule="evenodd" clip-rule="evenodd" fill="#7AB941" points="635.875,220.375 635.875,220.375 633.719,223.281 
		630.875,228.75 705.754,257.138 	"/>
</g>
</svg>
